<?xml version="1.0" standalone="no"?>
<!DOCTYPE svg PUBLIC "-//W3C//DTD SVG 20010904//EN"
 "http://www.w3.org/TR/2001/REC-SVG-20010904/DTD/svg10.dtd">
<svg version="1.0" xmlns="http://www.w3.org/2000/svg"
 width="898.000000pt" height="898.000000pt" viewBox="0 0 898.000000 898.000000"
 preserveAspectRatio="xMidYMid meet">
<metadata>
Created by potrace 1.11, written by Peter Selinger 2001-2013
</metadata>
<g transform="translate(0.000000,898.000000) scale(0.100000,-0.100000)"
fill="#000000" stroke="none">
<path d="M40 8973 l36 -4 -2 -82 c-2 -45 -5 -194 -9 -332 -6 -278 -10 -347
-24 -485 -6 -52 -16 -173 -22 -268 -11 -156 -11 -178 4 -220 22 -60 23 -131 2
-138 -13 -5 -15 -427 -15 -3710 l0 -3704 4475 0 4475 0 0 4475 0 4475 -4477
-2 c-2463 -1 -4462 -3 -4443 -5z m4650 -187 c65 -9 135 -26 180 -44 41 -16 91
-33 110 -37 123 -26 705 -300 805 -380 22 -18 66 -49 97 -69 59 -38 217 -203
324 -335 160 -199 206 -261 241 -325 21 -38 57 -96 80 -130 72 -103 111 -178
127 -242 9 -34 28 -88 42 -120 43 -96 94 -234 113 -304 10 -36 35 -103 55
-148 47 -104 133 -443 146 -577 16 -167 27 -230 45 -264 10 -20 21 -76 26
-135 5 -55 15 -130 21 -166 8 -45 11 -285 11 -780 0 -619 -3 -726 -17 -800 -9
-47 -15 -121 -15 -165 6 -278 -33 -669 -95 -961 -30 -141 -104 -370 -146 -454
-16 -32 -42 -94 -56 -137 -24 -72 -91 -211 -238 -496 -82 -159 -129 -220 -351
-449 -267 -277 -401 -383 -541 -434 -35 -13 -81 -34 -101 -47 -21 -13 -84 -43
-141 -66 -88 -36 -123 -44 -235 -57 -73 -8 -177 -21 -231 -29 -130 -20 -185
-19 -357 4 -155 21 -240 43 -258 65 -10 12 12 14 151 16 90 0 174 3 188 6 54
12 80 27 80 45 0 12 -11 24 -27 30 -58 23 -203 43 -323 45 -69 1 -168 7 -220
13 -52 6 -136 11 -187 11 -83 0 -103 4 -224 47 -73 26 -143 57 -158 70 l-26
24 150 -7 c83 -4 247 -9 365 -10 209 -2 217 -1 269 22 67 30 59 45 -31 55 -35
4 -124 14 -198 22 -74 9 -225 23 -335 32 -353 28 -550 59 -588 93 -54 49 -71
47 447 47 444 0 484 1 509 18 56 36 25 62 -93 77 -36 5 -198 14 -360 20 -510
19 -712 31 -734 42 -27 13 -146 129 -146 142 0 9 108 5 390 -14 207 -14 550
-12 580 3 39 20 32 50 -15 64 -103 31 -721 80 -951 75 l-151 -3 -35 53 c-53
80 -61 98 -46 98 7 0 114 -7 238 -15 517 -34 1078 -50 1128 -32 30 11 26 48
-8 64 -33 15 -247 39 -490 53 -107 6 -231 15 -274 21 -44 5 -118 9 -165 9
-100 0 -450 27 -500 38 -27 6 -37 14 -43 37 -16 61 -2 65 172 40 174 -24 1275
-54 1323 -36 39 15 39 64 0 79 -60 23 -255 40 -533 47 -107 3 -267 10 -355 15
-88 5 -254 15 -370 21 -249 12 -321 24 -343 57 l-15 23 199 -4 c109 -3 348 -9
529 -15 323 -11 638 -4 710 16 42 12 47 48 9 62 -46 18 -414 40 -640 40 -117
-1 -252 4 -300 11 -49 6 -123 9 -164 6 -68 -5 -340 15 -383 29 -10 3 -22 17
-28 31 -21 57 -40 54 349 49 196 -2 458 -10 582 -17 225 -12 278 -14 828 -25
275 -5 294 -4 290 12 -7 38 -50 55 -179 69 -229 25 -372 36 -609 46 -129 6
-320 14 -425 19 -104 5 -320 14 -480 20 -401 14 -425 19 -440 81 l-7 26 139 4
c76 3 305 1 508 -3 909 -19 928 -19 990 -6 50 11 61 17 63 35 3 17 -4 26 -25
34 -31 12 -212 23 -623 38 -151 6 -332 15 -403 22 -70 6 -153 9 -185 5 -57 -6
-406 8 -513 20 -54 6 -56 5 -101 -33 -39 -34 -56 -42 -122 -52 -84 -14 -96
-12 -239 30 -64 18 -113 40 -138 59 -43 35 -119 118 -119 131 0 18 53 20 261
10 118 -6 372 -14 564 -17 229 -4 380 -11 436 -20 48 -8 203 -19 345 -24 143
-6 333 -15 424 -20 355 -22 415 -23 438 -11 49 26 13 63 -78 79 -111 21 -321
41 -525 52 -115 6 -268 15 -340 20 -358 27 -450 32 -695 41 -146 6 -303 13
-348 17 l-84 7 34 35 c19 19 49 55 68 78 l33 44 131 -5 c147 -5 381 -20 656
-43 102 -9 257 -19 345 -24 88 -5 192 -13 230 -19 39 -5 138 -15 220 -21 83
-6 205 -15 273 -20 190 -15 357 -13 372 5 31 37 -28 59 -238 90 -92 13 -248
31 -347 40 -99 8 -191 18 -204 21 -13 3 -114 9 -225 14 -111 5 -239 16 -286
25 -52 9 -170 17 -304 20 -120 3 -257 10 -305 15 -47 5 -139 10 -204 10 -132
0 -128 -2 -200 93 -41 54 -69 50 -95 -12 -18 -44 -25 -51 -56 -57 -50 -9 -123
3 -130 22 -3 9 -6 42 -6 74 l0 58 48 7 c27 3 85 1 129 -5 59 -8 111 -8 191 0
77 8 197 8 417 1 169 -6 312 -8 317 -5 5 3 66 1 136 -5 577 -48 767 -59 952
-56 142 2 190 8 190 24 0 22 -37 32 -156 42 -71 6 -205 17 -299 25 -93 8 -276
19 -405 24 -129 6 -268 15 -308 20 -40 6 -108 10 -150 10 -42 0 -107 5 -144
10 -36 5 -196 10 -355 10 -158 1 -341 4 -406 7 -109 5 -117 7 -103 22 12 11
40 17 97 20 100 4 115 20 105 105 l-7 54 218 -4 c231 -3 496 -16 653 -33 52
-5 174 -14 270 -21 96 -6 236 -16 310 -23 74 -6 251 -12 392 -12 229 0 259 2
274 17 14 14 15 20 4 32 -18 23 -66 33 -230 52 -251 28 -319 33 -550 43 -124
6 -317 17 -430 26 -386 30 -495 37 -712 43 -119 4 -219 9 -222 12 -12 12 -36
127 -36 172 0 46 1 47 36 54 20 4 166 -3 323 -15 157 -12 358 -26 446 -31 88
-5 237 -18 330 -29 94 -10 211 -22 260 -26 50 -3 145 -13 212 -21 172 -20 426
-34 500 -27 56 5 63 8 63 28 0 32 -28 51 -90 64 -80 16 -378 50 -579 66 -96 8
-206 19 -245 25 -39 5 -153 14 -253 19 -100 5 -187 12 -194 17 -6 4 -78 11
-158 15 -80 5 -207 13 -281 18 -458 33 -466 35 -499 111 -12 27 -21 53 -21 59
0 17 156 13 340 -8 91 -11 233 -25 315 -31 292 -21 871 -78 965 -95 58 -10
354 -27 383 -21 19 4 46 15 58 25 l23 18 -25 16 c-43 28 -191 64 -309 76 -414
40 -636 61 -710 66 -47 3 -139 13 -205 20 -66 8 -176 19 -245 25 -167 14 -180
18 -207 66 -43 74 -30 84 82 63 28 -5 129 -13 225 -19 401 -23 632 -41 815
-65 401 -51 498 -56 518 -23 15 23 -8 64 -42 77 -49 19 -185 42 -327 56 -377
36 -615 56 -904 75 -173 12 -348 28 -388 35 -115 22 -168 57 -100 67 32 5 77
2 343 -21 66 -6 197 -15 290 -21 94 -6 235 -18 315 -26 253 -26 554 -41 626
-32 l69 8 85 -51 c184 -109 269 -134 495 -146 138 -7 223 12 380 88 95 45 120
63 185 129 41 42 91 103 110 135 39 65 69 167 69 235 1 50 -21 144 -39 164
-22 28 -183 74 -294 85 -230 23 -600 9 -751 -29 -80 -19 -157 -13 -221 20 -51
25 -79 32 -209 44 -179 18 -410 30 -595 31 -74 0 -241 6 -370 13 -129 7 -406
14 -615 15 l-380 2 -3 68 -3 67 563 0 c371 0 585 -4 628 -11 76 -13 593 -18
663 -6 50 9 62 28 29 46 -10 6 -88 17 -173 26 -85 8 -194 20 -244 26 -49 5
-133 12 -185 14 -166 7 -910 28 -1060 29 -80 1 -164 6 -187 10 -40 7 -43 10
-43 41 0 53 16 55 387 43 180 -6 445 -12 588 -13 143 -1 395 -8 560 -14 379
-16 805 -24 870 -16 122 14 95 43 -62 67 -277 42 -518 56 -1208 67 -319 5
-636 13 -705 16 -69 4 -186 10 -260 14 l-135 6 -9 27 c-6 17 -6 42 0 65 l9 38
170 -1 c213 -2 904 -21 1005 -28 41 -3 129 -10 195 -16 66 -6 175 -12 242 -15
67 -2 150 -9 185 -14 35 -5 133 -15 218 -21 85 -6 202 -15 260 -20 58 -6 171
-10 253 -10 146 0 147 0 147 23 -1 63 5 62 -870 147 -118 12 -321 23 -450 25
-129 2 -278 9 -330 15 -147 16 -605 35 -802 33 l-178 -2 0 29 c0 16 7 48 17
71 l16 42 151 -8 c83 -3 255 -10 381 -15 457 -16 822 -34 900 -44 17 -3 82 -7
145 -11 63 -3 201 -14 305 -25 485 -48 497 -49 521 -29 24 19 -2 36 -81 55
-39 8 -107 24 -153 35 -136 32 -400 60 -712 75 -162 8 -326 19 -365 24 -65 9
-417 30 -600 36 -163 5 -396 24 -415 34 -20 11 -25 37 -14 77 5 17 16 24 48
28 44 7 670 -11 876 -25 69 -4 260 -15 425 -24 323 -17 542 -33 556 -42 5 -3
116 -11 246 -19 131 -8 289 -20 351 -27 98 -10 115 -10 123 2 21 34 6 44 -101
62 -350 59 -915 108 -1421 123 -47 2 -135 8 -195 14 -60 7 -217 16 -349 22
-347 15 -468 23 -482 32 -6 4 -10 18 -7 31 6 37 65 157 79 162 7 3 84 0 171
-7 88 -6 285 -15 439 -19 362 -10 662 -26 955 -51 539 -45 726 -51 737 -24 3
9 -2 24 -11 34 -14 15 -39 20 -134 25 -64 4 -200 16 -302 26 -102 10 -237 21
-300 25 -63 3 -139 8 -168 11 -95 9 -429 25 -682 34 -323 10 -589 29 -613 42
-25 13 -18 66 15 114 26 39 -5 35 328 36 232 1 714 -17 730 -27 6 -4 86 -10
178 -15 92 -4 253 -16 357 -25 211 -18 364 -17 389 4 26 22 19 38 -26 56 -33
14 -89 20 -238 26 -107 4 -211 11 -230 14 -19 4 -129 11 -245 15 -115 5 -264
13 -330 19 -66 5 -221 15 -345 21 -124 6 -283 15 -353 22 l-129 11 6 30 c3 17
11 35 16 42 15 18 483 28 699 15 208 -12 809 -33 1001 -34 130 -1 135 0 138
20 4 31 -58 44 -258 55 -238 12 -461 29 -490 36 -14 3 -124 7 -245 8 -237 3
-635 22 -700 33 l-39 7 64 73 65 73 295 -5 c197 -3 327 -10 390 -20 72 -12
212 -17 575 -21 264 -3 522 -11 574 -16 86 -10 96 -9 108 7 7 9 10 20 8 25 -7
11 -125 27 -245 33 -58 3 -166 13 -240 21 -457 51 -423 49 -1140 71 -118 3
-221 10 -229 14 -11 6 -4 19 32 56 l46 49 830 3 c797 2 831 3 831 21 0 36
-147 60 -460 77 -161 9 -233 11 -657 21 -193 4 -355 11 -359 15 -10 10 12 34
60 67 l41 28 278 6 c152 3 340 2 416 -3 205 -14 419 -14 476 0 28 6 102 15
165 19 100 6 111 9 88 19 -39 16 -545 45 -1014 58 l-261 7 7 34 c9 40 24 60
59 78 21 10 61 11 201 3 288 -15 1081 -15 1108 0 12 7 22 16 22 20 0 8 -142
22 -575 58 -147 12 -207 13 -266 5 -51 -7 -96 -7 -135 -1 -32 6 -78 10 -101
10 -68 0 -53 23 40 63 l82 35 250 -5 c224 -5 254 -4 284 11 60 31 -9 56 -155
56 -96 0 -104 1 -104 19 0 21 27 29 175 51 39 6 149 26 245 45 96 19 191 36
210 38 97 10 474 5 570 -7z m-2055 -3334 c498 -17 973 -45 854 -51 -42 -2 -97
-29 -110 -53 -7 -13 -20 -54 -30 -91 -10 -38 -20 -71 -23 -74 -2 -3 -49 2
-103 10 -54 9 -136 18 -183 21 -47 4 -112 13 -145 21 -36 9 -150 19 -285 25
-124 6 -263 14 -310 20 -47 5 -146 10 -220 10 -132 0 -209 7 -380 36 -47 8
-112 14 -145 15 -33 1 -71 4 -84 8 -30 8 -57 45 -65 89 l-6 32 458 -4 c251 -2
601 -8 777 -14z m2026 -70 c36 -12 78 -33 92 -46 23 -22 27 -33 27 -83 0 -50
-7 -72 -47 -151 -40 -77 -63 -108 -133 -176 -78 -75 -94 -85 -182 -119 -136
-53 -195 -62 -312 -49 -106 12 -357 90 -406 126 -16 12 -64 51 -108 88 -96 81
-124 134 -130 245 l-4 73 74 33 c58 27 92 35 163 41 50 3 162 15 250 25 124
15 216 19 405 17 222 -2 251 -4 311 -24z m-2993 -176 c134 -18 399 -34 697
-42 138 -3 255 -11 291 -19 72 -16 335 -35 514 -36 69 0 144 -4 168 -7 42 -7
44 -9 72 -72 16 -36 30 -71 30 -77 0 -19 -52 -17 -315 11 -565 60 -938 94
-1160 105 -110 6 -216 15 -235 21 -19 5 -72 10 -118 10 -85 0 -168 15 -178 32
-3 5 -3 24 0 43 6 29 11 34 39 38 64 8 90 7 195 -7z m-57 -286 c21 -11 39 -22
39 -24 0 -2 -17 -2 -37 0 -158 16 -153 14 -153 36 0 19 4 20 56 14 30 -3 73
-15 95 -26z m70 -151 c100 -13 133 -29 155 -70 14 -28 14 -33 1 -47 -13 -13
-31 -13 -135 -3 -66 6 -158 11 -204 11 -78 0 -299 18 -306 25 -8 7 28 74 45
84 24 14 336 14 444 0z m-427 -251 c-20 -59 -66 -128 -84 -128 -9 0 -26 7 -39
16 -20 15 -22 22 -16 63 14 96 9 91 86 91 l68 0 -15 -42z m252 -79 c20 -12 34
-29 34 -40 0 -17 -8 -19 -79 -19 -47 0 -83 5 -87 11 -10 16 46 69 74 69 14 0
40 -9 58 -21z m92 -175 c12 -4 22 -12 22 -20 0 -8 14 -54 30 -104 17 -50 30
-98 30 -107 0 -14 -14 -15 -137 -9 -76 4 -207 11 -291 15 -84 4 -155 11 -159
14 -8 9 -7 182 1 196 11 17 77 13 138 -8 52 -18 58 -18 80 -3 12 9 43 19 68
23 61 9 190 10 218 3z m-180 -349 l292 -8 0 -32 c0 -39 -11 -45 -89 -45 -63 0
-93 -15 -116 -60 -27 -53 -65 -64 -190 -56 -112 6 -181 18 -196 33 -12 12 -33
149 -25 168 3 10 12 15 19 12 8 -3 145 -8 305 -12z m-5 -331 c14 -4 17 -17 17
-75 l0 -69 -57 1 c-102 1 -135 11 -160 48 -14 21 -23 49 -23 74 l0 39 103 -7
c56 -3 110 -9 120 -11z m70 -276 c10 -7 34 -38 55 -68 25 -37 52 -63 82 -77
l44 -23 -81 0 c-91 0 -169 13 -217 35 -28 14 -106 113 -106 136 0 14 204 11
223 -3z m337 -30 c-1 -53 -92 -62 -125 -12 l-15 24 70 0 c49 0 70 -4 70 -12z
m1620 -2368 l65 -45 -79 -3 c-52 -2 -94 2 -124 13 -25 8 -74 15 -109 15 -59 0
-64 2 -73 26 -18 46 -17 46 123 42 l132 -3 65 -45z m275 -170 c10 -11 30 -22
46 -25 38 -8 48 -26 12 -20 -61 11 -346 34 -486 40 -81 4 -149 11 -152 15 -3
5 123 9 279 9 264 -1 286 -2 301 -19z m1933 -117 c14 -26 40 -266 46 -420 l6
-133 -912 1 c-562 1 -898 4 -875 10 51 12 77 27 77 44 0 31 -150 53 -440 65
-294 12 -387 21 -408 36 -14 11 26 14 248 16 146 1 288 2 315 2 28 0 253 -2
500 -4 472 -4 495 -2 495 39 0 11 -8 22 -17 26 -10 4 -97 9 -193 12 -96 2
-233 13 -305 23 -177 25 -296 34 -450 35 -463 1 -585 5 -585 20 0 12 90 14
653 17 l652 3 47 36 47 36 243 6 c134 3 272 11 308 17 172 28 343 67 425 96
108 38 112 39 123 17z m-2023 -38 c83 0 231 2 330 4 l180 3 55 -31 55 -31
-265 3 c-320 4 -796 26 -827 38 -13 5 -23 14 -23 20 0 9 43 10 173 3 94 -5
240 -9 322 -9z m2307 -253 c113 -59 287 -173 332 -217 l41 -40 -234 -3 c-129
-1 -237 0 -240 4 -3 3 -8 71 -9 150 -4 170 -8 167 110 106z m785 -148 c18 -5
83 -90 83 -109 0 -3 -69 -5 -153 -5 -146 0 -154 1 -174 22 -30 33 -46 69 -36
79 25 25 207 34 280 13z m-3807 -104 c15 -5 -24 -8 -100 -8 -82 1 -111 3 -85
8 54 10 155 10 185 0z"/>
<path d="M5001 5920 c-30 -5 -242 -11 -470 -15 -436 -6 -635 -21 -746 -55 -33
-10 -85 -21 -115 -25 -99 -11 -130 -23 -130 -49 0 -13 7 -30 16 -37 23 -19
148 -18 314 3 401 50 538 57 935 47 104 -3 166 0 203 10 62 16 94 50 90 95 -3
36 -14 38 -97 26z"/>
<path d="M6155 5865 c-11 -2 -85 -11 -165 -21 -113 -13 -159 -14 -205 -6 -67
11 -77 6 -73 -42 2 -24 12 -34 47 -53 52 -27 120 -30 201 -8 131 37 478 55
634 34 105 -14 221 5 221 36 0 11 -14 27 -35 39 -33 20 -52 21 -320 23 -157 0
-294 0 -305 -2z"/>
<path d="M6190 5536 c-63 -8 -142 -21 -175 -29 -33 -8 -78 -18 -100 -22 -102
-17 -200 -72 -280 -155 l-40 -41 0 -112 c0 -62 3 -123 8 -136 16 -49 116 -188
154 -214 21 -14 59 -48 84 -75 43 -45 52 -50 150 -75 85 -22 126 -27 226 -27
l121 0 99 50 c54 27 141 83 195 125 83 64 103 86 145 157 62 104 70 126 83
213 15 111 13 159 -11 189 -29 37 -180 124 -245 141 -81 21 -281 26 -414 11z
m472 -120 c21 -9 44 -26 52 -39 21 -32 38 -104 39 -167 1 -46 -4 -66 -35 -120
-54 -97 -111 -156 -223 -229 -115 -75 -189 -97 -360 -107 l-100 -6 -44 34
c-25 18 -65 44 -90 58 -48 26 -165 161 -204 235 -24 48 -26 118 -4 162 21 40
70 81 127 105 45 20 227 82 265 90 11 3 137 4 280 3 215 -2 266 -5 297 -19z"/>
<path d="M6152 5270 c-22 -20 -29 -64 -14 -86 10 -16 48 -34 70 -34 58 0 88
85 42 122 -29 24 -71 23 -98 -2z"/>
<path d="M5414 5060 c-12 -5 -31 -24 -43 -43 -19 -31 -21 -48 -21 -193 1 -263
49 -589 129 -855 79 -266 77 -258 58 -341 -23 -97 -22 -123 5 -142 30 -21 50
-20 80 4 44 34 71 106 72 190 1 63 -5 88 -31 155 -18 44 -37 102 -43 130 -6
27 -26 101 -45 165 -44 151 -51 194 -70 388 -9 90 -20 195 -25 235 -5 40 -10
113 -11 162 -2 142 -10 163 -55 145z"/>
<path d="M5338 3663 c-21 -5 -32 -36 -23 -63 4 -14 15 -20 35 -20 31 0 46 25
35 59 -7 22 -22 29 -47 24z"/>
<path d="M5073 2700 c-57 -34 -41 -86 34 -110 43 -15 423 -8 488 9 44 11 75
42 75 75 0 45 -9 46 -294 46 -253 0 -273 -1 -303 -20z"/>
<path d="M4261 5284 c-58 -49 -27 -134 49 -134 86 0 110 107 33 148 -32 18
-48 15 -82 -14z"/>
</g>
</svg>
